<svg xmlns="http://www.w3.org/2000/svg" xmlns:xlink="http://www.w3.org/1999/xlink" viewBox="0 0 1920 1080"><defs><linearGradient id="a" x1="395.91" y1="290.97" x2="1345.5" y2="290.97" gradientUnits="userSpaceOnUse"><stop offset="0" stop-color="aqua" stop-opacity="0"/><stop offset="0.07" stop-color="aqua" stop-opacity="0.12"/><stop offset="0.21" stop-color="aqua" stop-opacity="0.35"/><stop offset="0.36" stop-color="aqua" stop-opacity="0.55"/><stop offset="0.5" stop-color="aqua" stop-opacity="0.71"/><stop offset="0.64" stop-color="aqua" stop-opacity="0.84"/><stop offset="0.77" stop-color="aqua" stop-opacity="0.93"/><stop offset="0.89" stop-color="aqua" stop-opacity="0.98"/><stop offset="1" stop-color="aqua"/></linearGradient><linearGradient id="b" x1="932.73" y1="286.68" x2="1345.5" y2="286.68" gradientUnits="userSpaceOnUse"><stop offset="0" stop-color="#fff" stop-opacity="0"/><stop offset="0.03" stop-color="#fff" stop-opacity="0.05"/><stop offset="0.19" stop-color="#fff" stop-opacity="0.3"/><stop offset="0.35" stop-color="#fff" stop-opacity="0.51"/><stop offset="0.5" stop-color="#fff" stop-opacity="0.69"/><stop offset="0.64" stop-color="#fff" stop-opacity="0.82"/><stop offset="0.77" stop-color="#fff" stop-opacity="0.92"/><stop offset="0.9" stop-color="#fff" stop-opacity="0.98"/><stop offset="1" stop-color="#fff"/></linearGradient><linearGradient id="c" x1="1491.58" y1="211.97" x2="1613.22" y2="236.04" gradientUnits="userSpaceOnUse"><stop offset="0" stop-color="aqua" stop-opacity="0"/><stop offset="0.06" stop-color="aqua" stop-opacity="0.12"/><stop offset="0.19" stop-color="aqua" stop-opacity="0.35"/><stop offset="0.32" stop-color="aqua" stop-opacity="0.55"/><stop offset="0.45" stop-color="aqua" stop-opacity="0.71"/><stop offset="0.58" stop-color="aqua" stop-opacity="0.84"/><stop offset="0.7" stop-color="aqua" stop-opacity="0.93"/><stop offset="0.81" stop-color="aqua" stop-opacity="0.98"/><stop offset="0.91" stop-color="aqua"/><stop offset="0.99" stop-color="#fff"/></linearGradient></defs><rect width="1920" height="810.44" style="fill:#0c001e"/><circle cx="945.64" cy="760.5" r="663.81" style="fill:#1b1772"/><circle cx="945.64" cy="760.5" r="346.5" style="fill:#351693"/><circle cx="954.64" cy="760.5" r="131.2" style="fill:#4920c9"/><circle cx="1127.37" cy="321.23" r="6.14" style="fill:#fff;opacity:0.4"/><circle cx="1085.2" cy="381.85" r="9" style="fill:#fff;opacity:0.6"/><circle cx="1046.24" cy="316.6" r="4.5" style="fill:#fff;opacity:0.78"/><circle cx="1042.77" cy="528" r="4.5" style="fill:#fff;opacity:0.4"/><circle cx="1026.39" cy="508.52" r="4.5" style="fill:aqua;opacity:0.78"/><circle cx="1026.85" cy="418.25" r="4.5" style="fill:#fff;opacity:0.78"/><circle cx="844.16" cy="571.98" r="4.5" style="fill:#fff;opacity:0.4"/><circle cx="617.36" cy="598.37" r="4.5" style="fill:aqua;opacity:0.78"/><circle cx="739.41" cy="501.8" r="4.5" style="fill:#fff;opacity:0.78"/><circle cx="774.05" cy="515.06" r="4.5" style="fill:#fff;opacity:0.4"/><circle cx="740.31" cy="713.65" r="4.5" style="fill:#fff;opacity:0.78"/><circle cx="825.28" cy="694.37" r="4.5" style="fill:#fff;opacity:0.4"/><circle cx="1459.6" cy="298.3" r="6.14" style="fill:#fff;opacity:0.4"/><circle cx="1476" cy="54" r="10.64" style="fill:#fff;opacity:0.4"/><circle cx="1169.54" cy="510.42" r="4.5" style="fill:#fff;opacity:0.4"/><circle cx="1215.32" cy="449.26" r="6.14" style="fill:#fff;opacity:0.4"/><circle cx="1189.45" cy="526.29" r="4.5" style="fill:#fff;opacity:0.78"/><circle cx="1617.89" cy="95.13" r="4.5" style="fill:#fff;opacity:0.4"/><circle cx="1594.77" cy="105.8" r="4.5" style="fill:aqua;opacity:0.78"/><circle cx="1257.04" cy="574.24" r="4.5" style="fill:#fff;opacity:0.4"/><circle cx="1282.38" cy="571.81" r="4.5" style="fill:#fff;opacity:0.78"/><circle cx="1669.5" cy="229.5" r="4.5" style="fill:#fff;opacity:0.4"/><circle cx="1584.81" cy="308.98" r="4.5" style="fill:aqua;opacity:0.78"/><circle cx="1512.59" cy="380.83" r="4.5" style="fill:#fff;opacity:0.78"/><circle cx="1588.5" cy="400.5" r="4.5" style="fill:#fff;opacity:0.4"/><circle cx="1726.63" cy="546.86" r="4.5" style="fill:#fff;opacity:0.4"/><circle cx="1797.89" cy="574.41" r="6.14" style="fill:#fff;opacity:0.4"/><circle cx="1755.18" cy="561.39" r="10.64" style="fill:#fff;opacity:0.4"/><circle cx="1755.18" cy="561.39" r="6.14" style="fill:#fff;opacity:0.4"/><circle cx="1717.17" cy="435.86" r="4.5" style="fill:#fff;opacity:0.78"/><circle cx="1474.36" cy="568.64" r="10.64" style="fill:#fff;opacity:0.4"/><circle cx="1681.47" cy="503.92" r="4.5" style="fill:#fff;opacity:0.78"/><circle cx="1312.78" cy="199.63" r="4.5" style="fill:#fff;opacity:0.4"/><circle cx="1720.99" cy="348.81" r="4.5" style="fill:#fff;opacity:0.4"/><circle cx="1718.43" cy="374.14" r="4.5" style="fill:#fff;opacity:0.78"/><circle cx="1894.96" cy="324.58" r="4.5" style="fill:#fff;opacity:0.78"/><circle cx="1812.77" cy="382.73" r="4.5" style="fill:#fff;opacity:0.4"/><circle cx="1821.61" cy="310.24" r="9" style="fill:#fff;opacity:0.6"/><circle cx="1836" cy="342" r="4.5" style="fill:aqua;opacity:0.78"/><circle cx="1114.99" cy="153.06" r="9" style="fill:#fff;opacity:0.6"/><polygon points="2290 761 1096 761 1100.76 749.16 1115.64 747.24 1122.36 732.84 1156.92 732.84 1164.6 709.8 1192.56 686.76 1604.04 686.76 1651.56 620.88 1672.08 620.88 1677.48 598.2 1698 598.2 1783.32 507.48 1908.6 507.48 2003.64 351.24 2101.56 287.88 2173.56 160 2290 160 2290 761" style="fill:#01001c"/><path d="M1432,534l3.44,60.44a351,351,0,0,0-110.62,0l3.44-60.44A306.22,306.22,0,0,1,1432,534Z" style="fill:#ec524b"/><path d="M1428.25,468.24,1432,534a306.22,306.22,0,0,0-103.74,0l3.78-66.54a300.06,300.06,0,0,1,45.84-3.43A296.83,296.83,0,0,1,1428.25,468.24Z" style="fill:#f2f2f2"/><path d="M1425.24,415.29l3,52.95a296.83,296.83,0,0,0-50.38-4.16,300.06,300.06,0,0,0-45.84,3.43l3-53a261.28,261.28,0,0,1,42.83-3.43A256.09,256.09,0,0,1,1425.24,415.29Z" style="fill:#ec524b"/><path d="M1422.6,369l2.64,46.25a256.09,256.09,0,0,0-47.36-4.22,261.28,261.28,0,0,0-42.83,3.43l2.58-45.4a2.53,2.53,0,0,1,.13.22,52.46,52.46,0,0,1,9.73-2.5c6.77-1.25,17.35-2.5,32.59-2.5,30.52,0,42.36,5,42.36,5Z" style="fill:#f2f2f2"/><path d="M1416.45,260.88l2.66,46.69a403.12,403.12,0,0,0-78,0l2.66-46.69a3.7,3.7,0,0,1,2.15-3.06l25.56-11.66a3.71,3.71,0,0,0,2.07-2.54l2.66-11.64a3.68,3.68,0,0,1,7.15-.15l3.25,11.9a3.69,3.69,0,0,0,2,2.39l25.65,11.7A3.7,3.7,0,0,1,1416.45,260.88Z" style="fill:#f2f2f2"/><path d="M1387.8,661.16l1,25.6h-33.72l2-25.6a15.36,15.36,0,1,1,30.72,0Z" style="fill:#666"/><path d="M1399.18,661.16l1,25.6h-33.72l2-25.6a15.36,15.36,0,0,1,30.72,0Z" style="fill:#1a1a1a"/><path d="M1435.43,594.48l5.25,92.28H1388.8l-1-25.6a15.36,15.36,0,1,0-30.72,0l-2,25.6h-35.52l5.25-92.27a351,351,0,0,1,110.62,0Z" style="fill:#f2f2f2"/><path d="M1419.11,307.57c-23.39-3.23-78.36-2.12-98.53,3.11.93,1.95-2.34,46.57,2.22,45.53a29.84,29.84,0,0,1,15,13.11c13.69-7.66,81.41-4.64,84.68,0a29.84,29.84,0,0,1,15-13.11,3.55,3.55,0,0,0,2.22-3.29V310.68A175,175,0,0,0,1419.11,307.57Z" style="fill:#666"/><path d="M1435.45,595.05c-4-70.42-8.81-155.14-12.83-225.45a29.9,29.9,0,0,1,14.8-12.82,3.56,3.56,0,0,0,2.23-3.3V311.25a175.44,175.44,0,0,0-20.52-3.11c-1-1.88-.72-50.55-4.8-49.76l-25.66-11.7c-4.76-2.23-2.43-16.79-8.82-17-6.72.32-3.33,14.71-8.33,17L1346,258.38c-4.1-.92-3.82,48.08-4.81,49.76a172.7,172.7,0,0,0-20.55,3.11s-2.36,46.28,2.22,45.53a29.77,29.77,0,0,1,14.83,12.88c-5.73,100.9-12.31,216.48-18.06,317.66H1440.7Z" style="fill:none;stroke:#000;stroke-miterlimit:10;stroke-width:12px"/><path d="M1105.14,769c-21.11-2.23-18.28-30,5.11-29.13,2.73-7.07,7.26-15.45,16-15h24.86l5.3-15.88c.69-6,25.46-22.8,29.31-27a14.23,14.23,0,0,1,9-3.24H1600l43.27-60c4.46-7.33,15.32-5.81,22.54-5.88,3.93-21.11,7.42-23.72,28.78-22.68,111.62-114.69,49.84-88,209.56-90.72l92-151.19a14.37,14.37,0,0,1,4.41-4.54l95.08-61.51c5.86-4.52,69.87-139.24,81.61-130.24v16a1.83,1.83,0,0,0,1.59-.93l-69.48,123.41a14.2,14.2,0,0,1-4.65,4.94L2009.52,357l-92.28,151.71c-1,14-122.21,4-130.46,6.81l-81.12,86.26c-4.72,6-15.27,4.24-21.86,4.46-3.88,20.49-7,23.81-28.15,22.68l-43.27,60a14.23,14.23,0,0,1-11.5,5.88H1195.43l-24,19.75c-9,33.64-14.07,25.29-44,26.33-4.73,12.42-9,14.94-22.09,15.79,2.24-.2,1.91-3.71-.23-3.63Z" style="fill:#4646db"/><rect y="761" width="1920" height="479" style="fill:#1035d9"/><rect y="891.7" width="1920" height="188.3" style="fill:#0d29b3"/><rect y="1007.78" width="1920" height="144.44" style="fill:#0a2191"/><rect x="1278" y="752" width="414" height="18" rx="9" style="fill:#9fbdff"/><rect x="637" y="883" width="198" height="18" rx="9" style="fill:#507cf9"/><rect x="1485" y="999" width="90" height="18" rx="9" style="fill:#507cf9"/><rect x="862" y="883" width="108" height="18" rx="9" style="fill:#bdd1ff"/><circle cx="711.82" cy="238.48" r="6.14" style="fill:#fff;opacity:0.4"/><circle cx="781.36" cy="90" r="10.64" style="fill:aqua;opacity:0.4"/><circle cx="1131.22" cy="246.02" r="6.14" style="fill:#fff;opacity:0.4"/><circle cx="1192.7" cy="175.74" r="9" style="fill:#fff;opacity:0.6"/><circle cx="1170.2" cy="252.24" r="4.5" style="fill:#fff;opacity:0.78"/><circle cx="1025.61" cy="368.99" r="6.14" style="fill:#fff;opacity:0.4"/><circle cx="1024.36" cy="232.36" r="10.64" style="fill:#fff;opacity:0.4"/><circle cx="954" cy="387" r="9" style="fill:#fff;opacity:0.6"/><circle cx="967.48" cy="312.21" r="4.5" style="fill:#fff;opacity:0.78"/><circle cx="826.02" cy="469.34" r="4.5" style="fill:#fff;opacity:0.4"/><circle cx="826.45" cy="443.89" r="4.5" style="fill:#fff;opacity:0.78"/><circle cx="886.09" cy="376.12" r="4.5" style="fill:#fff;opacity:0.78"/><circle cx="1081.34" cy="55.72" r="4.5" style="fill:#fff;opacity:0.4"/><circle cx="595.34" cy="1.72" r="6.14" style="fill:#fff;opacity:0.4"/><circle cx="630" cy="29.86" r="10.64" style="fill:#fff;opacity:0.4"/><circle cx="630" cy="29.86" r="6.14" style="fill:#fff;opacity:0.4"/><circle cx="647.36" cy="372.06" r="4.5" style="fill:#fff;opacity:0.4"/><circle cx="459" cy="243" r="4.5" style="fill:#fff;opacity:0.78"/><circle cx="637.66" cy="104.64" r="10.64" style="fill:#fff;opacity:0.4"/><circle cx="614.46" cy="250.34" r="4.5" style="fill:#fff;opacity:0.78"/><circle cx="631.88" cy="283.09" r="4.5" style="fill:#fff;opacity:0.4"/><circle cx="90" cy="441" r="4.5" style="fill:#fff;opacity:0.4"/><circle cx="60.14" cy="299.71" r="6.14" style="fill:#fff;opacity:0.4"/><circle cx="90.42" cy="266.9" r="10.64" style="fill:#fff;opacity:0.4"/><circle cx="79.54" cy="120.1" r="9" style="fill:#fff;opacity:0.6"/><circle cx="154.46" cy="147.4" r="4.5" style="fill:#fff;opacity:0.78"/><circle cx="452.38" cy="65.86" r="4.5" style="fill:#fff;opacity:0.4"/><circle cx="482.86" cy="55.99" r="10.64" style="fill:#fff;opacity:0.4"/><circle cx="326.86" cy="191.86" r="11.86" style="fill:#fff;opacity:0.4"/><circle cx="214.56" cy="107.69" r="9" style="fill:#fff;opacity:0.6"/><circle cx="152.89" cy="57.15" r="4.5" style="fill:#fff;opacity:0.78"/><circle cx="554.55" cy="52.4" r="4.5" style="fill:#fff;opacity:0.78"/><circle cx="211.51" cy="142.42" r="4.5" style="fill:#fff;opacity:0.78"/><circle cx="316.14" cy="423.16" r="6.14" style="fill:#fff;opacity:0.4"/><circle cx="346.42" cy="390.36" r="10.64" style="fill:#fff;opacity:0.4"/><circle cx="346.42" cy="390.36" r="6.14" style="fill:#fff;opacity:0.4"/><circle cx="476" cy="410.68" r="4.5" style="fill:#fff;opacity:0.78"/><circle cx="118.64" cy="586.64" r="10.64" style="fill:#fff;opacity:0.4"/><circle cx="430.21" cy="348.94" r="4.5" style="fill:#fff;opacity:0.78"/><circle cx="864.49" cy="149.14" r="4.5" style="fill:#fff;opacity:0.4"/><circle cx="552.74" cy="451.95" r="4.5" style="fill:#fff;opacity:0.4"/><circle cx="498.95" cy="619.16" r="4.5" style="fill:#fff;opacity:0.78"/><circle cx="482.3" cy="519.87" r="4.5" style="fill:#fff;opacity:0.4"/><circle cx="63" cy="648" r="9" style="fill:#fff;opacity:0.6"/><circle cx="193.5" cy="490.5" r="4.5" style="fill:aqua;opacity:0.78"/><circle cx="158.64" cy="336.2" r="4.5" style="fill:#fff;opacity:0.4"/><circle cx="984.99" cy="142.48" r="9" style="fill:#fff;opacity:0.6"/><circle cx="528.61" cy="116.12" r="4.5" style="fill:#fff;opacity:0.4"/><circle cx="950.14" cy="141.63" r="4.5" style="fill:#fff;opacity:0.78"/><circle cx="326.86" cy="191.86" r="6.14" style="fill:#fff"/><circle cx="326.86" cy="191.86" r="20.86" style="fill:#ed1c24;opacity:0.4"/><polygon points="1345.5 261 395.91 135.78 405.38 446.16 1345.5 306 1345.5 261" style="fill:url(#a)"/><polygon points="1440.7 678.76 1402.28 678.76 1399.88 355.16 1413.71 345.55 1413.34 319.15 1397.2 317 1396.28 251.48 1416.45 260.88 1419.16 307.57 1439.28 311.42 1441.39 347.8 1422.45 364.32 1440.7 678.76" style="opacity:0.2"/><circle cx="1345.5" cy="283.5" r="22.5" style="fill:aqua"/><circle cx="1345.5" cy="282.9" r="18.34" style="fill:#fff"/><polygon points="1345.5 264.56 932.73 205.94 1003.4 232.36 965.2 253.39 1031.35 269 994 286.68 1031.35 302.12 960.27 323.36 998.6 331.88 932.73 367.43 1345.5 301.24 1345.5 264.56" style="fill:url(#b)"/><path d="M-13.19,869.74,59,687.87a17.79,17.79,0,0,1,14.78-11.13l65.09-6.43a17.79,17.79,0,0,1,19,13.38l27,107.95a17.77,17.77,0,0,0,20.75,13.11l47-9.44a17.78,17.78,0,0,1,18.23,7.47l72.68,107.41a17.8,17.8,0,0,0,7.68,6.37h0c17.73,7.65,12.26,34.1-7.05,34.1H3.34a17.78,17.78,0,0,1-17.78-17.78V876.3A17.91,17.91,0,0,1-13.19,869.74Z" style="fill:#01001c"/><path d="M369.86,913.48a27.08,27.08,0,0,1,0,54.16l-143.78.5" style="fill:none;stroke:#bddeff;stroke-linecap:round;stroke-miterlimit:10;stroke-width:16px"/><rect x="145.55" y="959.14" width="56.4" height="18" rx="9" style="fill:#6394f7"/><path d="M79.4,670.22l42.91-7.88a31.72,31.72,0,0,1,36.45,23.31l30.6,119" style="fill:none;stroke:#7272f2;stroke-linecap:round;stroke-linejoin:round;stroke-width:13px"/><path d="M125.9,799.73l111-8.09c15.9-1.16,31.22,4.24,38.42,13.53l7.37,9.53c12.94,16.73-6.09,36.41-34.87,36.06l-118.36-1.44c-25-.31-42.84-15.88-36.13-31.55h0C97.51,808,110.4,800.86,125.9,799.73Z" style="fill:#181872"/><rect x="1202.92" y="751.5" width="60.36" height="18" rx="9" style="fill:#5985d3"/><rect x="1051.94" y="752" width="136.26" height="18" rx="9" style="fill:#9fbdff"/><path d="M1077.39,1085.05l54.73-103.34a67.72,67.72,0,0,1,59.84-36H1338.1a67.69,67.69,0,0,1,50.33,22.41l35.73,39.7a67.71,67.71,0,0,0,54.47,22.29h0a67.72,67.72,0,0,1,59.69,28.87l30.3,43.48c32.45,46.55-3.32,110-59.94,106.29l-375.84-24.42C1083.83,1181.13,1054.41,1128.46,1077.39,1085.05Z" style="fill:#01001c"/><path d="M1604.55,256.67c-19.74-33.39-65.93-60.82-103.4-69.88" style="fill:#0c001e"/><path d="M1600.68,259a113,113,0,0,0-18.62-24.44,173.83,173.83,0,0,0-24-20.17,203.56,203.56,0,0,0-27.25-16.06,177.43,177.43,0,0,0-29.64-11.5,179,179,0,0,1,30.56,9.44,207,207,0,0,1,28.78,14.35,179.66,179.66,0,0,1,26.22,19,120.47,120.47,0,0,1,21.71,24.76,4.5,4.5,0,1,1-7.57,4.88l-.16-.26Z" style="fill:url(#c)"/><path d="M1122.61,999.66l9.51-17.95a67.72,67.72,0,0,1,59.84-36H1338.1a67.69,67.69,0,0,1,50.33,22.41" style="fill:none;stroke:#8a8aff;stroke-linecap:round;stroke-miterlimit:10;stroke-width:16px"/></svg>